<svg width="343" height="83" viewBox="0 0 343 83" fill="none" xmlns="http://www.w3.org/2000/svg">
<path d="M68.75 81.25V79.5H67V77.75H70.5V79.5H75.75V76H70.5V74.25H75.75V70.75H70.5V72.5H67V70.75H68.75V69H77.5V70.75H79.25V74.25H77.5V76H79.25V79.5H77.5V81.25H68.75ZM81 81.25V72.5H82.75V70.75H84.5V69H89.75V70.75H91.5V72.5H93.25V81.25H89.75V77.75H84.5V81.25H81ZM84.5 76H89.75V72.5H88V70.75H86.25V72.5H84.5V76ZM100.25 72.5H102V74.25H103.75V76H105.5V79.5H107.25V81.25H103.75V79.5H102V76H98.5V81.25H95V69H98.5V74.25H100.25V72.5ZM107.25 69V70.75H105.5V72.5H102V70.75H103.75V69H107.25ZM109 81.25V69H119.5V70.75H121.25V76H119.5V77.75H112.5V81.25H109ZM112.5 76H117.75V70.75H112.5V76ZM123 81.25V69H126.5V72.5H130V81.25H123ZM131.75 81.25V69H135.25V81.25H131.75ZM126.5 79.5H128.25V74.25H126.5V79.5ZM137 81.25V69H147.5V70.75H149.25V74.25H147.5V76H149.25V79.5H147.5V81.25H137ZM140.5 74.25H145.75V70.75H140.5V74.25ZM140.5 79.5H145.75V76H140.5V79.5ZM151 81.25V72.5H152.75V70.75H154.5V69H159.75V70.75H161.5V72.5H163.25V81.25H159.75V77.75H154.5V81.25H151ZM154.5 76H159.75V72.5H158V70.75H156.25V72.5H154.5V76ZM165 81.25V69H166.75V74.25H168.5V70.75H170.25V69H175.5V70.75H177.25V79.5H175.5V81.25H170.25V79.5H168.5V76H166.75V81.25H165ZM172 79.5H173.75V70.75H172V79.5ZM189.5 83V81.25H179V69H182.5V79.5H184.25V69H186V79.5H187.75V69H191.25V79.5H193V83H189.5ZM193 81.25V69H196.5V76H198.25V74.25H200V72.5H201.75V69H205.25V81.25H201.75V76H200V77.75H198.25V79.5H196.5V81.25H193ZM208.75 70.75V69H217.5V70.75H208.75ZM207 81.25V72.5H210.5V77.75H212.25V76H214V74.25H215.75V72.5H219.25V81.25H215.75V77.75H214V79.5H212.25V81.25H207ZM240.25 81.25V70.75H236.75V69H247.25V70.75H243.75V81.25H240.25ZM249 81.25V69H261.25V70.75H252.5V74.25H259.5V76H252.5V79.5H261.25V81.25H249ZM264.75 81.25V69H275.25V72.5H273.5V70.75H268.25V81.25H264.75Z" fill="black"/>
<path d="M24.5 42.875V36.75H18.375V30.625H12.25V24.5H6.125V18.375H12.25V12.25H18.375V6.125H24.5V0H36.75V6.125H30.625V12.25H24.5V18.375H18.375V24.5H24.5V30.625H30.625V36.75H36.75V42.875H24.5ZM91.875 0V6.125H85.75V0H91.875ZM79.625 6.125H85.75V12.25H79.625V6.125ZM73.5 12.25H79.625V18.375H73.5V12.25ZM67.375 18.375H73.5V24.5H67.375V18.375ZM61.25 24.5H67.375V30.625H61.25V24.5ZM55.125 30.625H61.25V36.75H55.125V30.625ZM49 36.75H55.125V42.875H49V36.75ZM98 42.875V0H110.25V18.375H128.625V0H140.875V42.875H128.625V24.5H110.25V42.875H98ZM165.375 42.875V6.125H153.125V0H189.875V6.125H177.625V42.875H165.375ZM196 42.875V0H208.25V6.125H214.375V12.25H220.5V6.125H226.625V0H238.875V42.875H226.625V18.375H220.5V30.625H214.375V18.375H208.25V42.875H196ZM251.125 42.875V0H263.375V36.75H287.875V42.875H251.125ZM300.125 42.875V36.75H306.25V30.625H312.375V24.5H318.5V18.375H312.375V12.25H306.25V6.125H300.125V0H312.375V6.125H318.5V12.25H324.625V18.375H330.75V24.5H324.625V30.625H318.5V36.75H312.375V42.875H300.125Z" fill="black"/>
</svg>
