<?xml version="1.0" encoding="UTF-8"?>
<svg xmlns="http://www.w3.org/2000/svg" xmlns:xlink="http://www.w3.org/1999/xlink" width="30px" height="30px" viewBox="0 0 30 30" version="1.1">
<g id="surface1">
<path style=" stroke:none;fill-rule:nonzero;fill:rgb(0%,0%,0%);fill-opacity:1;" d="M 15 15 L 18.75 15 L 18.75 18.75 L 15 18.75 Z M 11.25 15 L 11.25 11.25 L 15 11.25 L 15 15 Z M 11.25 15 L 11.25 18.75 L 7.5 18.75 L 7.5 15 Z M 22.5 7.5 L 18.75 7.5 L 18.75 11.25 L 22.5 11.25 Z M 22.5 7.5 "/>
<path style=" stroke:none;fill-rule:evenodd;fill:rgb(0%,0%,0%);fill-opacity:1;" d="M 0 0 L 0 30 L 30 30 L 30 0 Z M 26.25 26.25 L 18.75 26.25 L 18.75 22.5 L 22.5 22.5 L 22.5 18.75 L 26.25 18.75 Z M 18.75 18.75 L 22.5 18.75 L 22.5 15 L 26.25 15 L 26.25 3.75 L 3.75 3.75 L 3.75 18.75 L 7.5 18.75 L 7.5 22.5 L 3.75 22.5 L 3.75 26.25 L 15 26.25 L 15 22.5 L 18.75 22.5 Z M 18.75 18.75 "/>
</g>
</svg>
